<svg width="42" height="42" viewBox="0 0 42 42" fill="none" xmlns="http://www.w3.org/2000/svg">
<path d="M41.3441 0H39.375V0.6272C36.6338 1.2404 36.2397 3.7849 36.085 4.7572C36.0115 5.2171 35.8624 6.1166 35.6776 7.2184H1.39135C0.0347367 7.2184 -0.117164 8.4861 0.0599369 9.1875L4.08216 26.9444C4.25856 27.6458 5.00127 28.2184 5.72927 28.2184H35.7903C36.5141 28.2184 37.1042 28.8071 37.1042 29.5309C37.1042 30.2547 36.5141 30.8434 35.7903 30.8434H2.97826C2.63016 30.8434 2.29632 30.9817 2.05017 31.2278C1.80403 31.474 1.66575 31.8078 1.66575 32.1559C1.66575 32.504 1.80403 32.8378 2.05017 33.084C2.29632 33.3301 2.63016 33.4684 2.97826 33.4684H4.67927C3.85795 33.9218 3.17327 34.5872 2.69656 35.3952C2.21984 36.2033 1.96855 37.1243 1.96885 38.0625H3.28136C3.28136 40.236 5.04537 42 7.21888 42C9.3924 42 11.1564 40.236 11.1564 38.0625H12.4689C12.4691 37.1243 12.2176 36.2032 11.7408 35.3952C11.264 34.5872 10.5792 33.9218 9.7578 33.4684H28.3037C27.4823 33.9218 26.7975 34.5872 26.3207 35.3952C25.8439 36.2032 25.5924 37.1243 25.5926 38.0625H26.9051C26.9246 39.0941 27.348 40.0769 28.0845 40.7996C28.8209 41.5223 29.8115 41.9271 30.8433 41.9271C31.8751 41.9271 32.8657 41.5223 33.6022 40.7996C34.3386 40.0769 34.7621 39.0941 34.7816 38.0625H36.0941C36.0941 37.1244 35.8428 36.2034 35.3661 35.3954C34.8894 34.5874 34.2048 33.922 33.3836 33.4684H35.7917C36.8358 33.4678 37.837 33.0528 38.5753 32.3145C39.3136 31.5762 39.7286 30.575 39.7292 29.5309C39.7291 29.0137 39.6271 28.5016 39.4291 28.0239C39.2311 27.5461 38.941 27.112 38.5752 26.7464C38.2094 26.3807 37.7753 26.0907 37.2974 25.8929C36.8196 25.6951 36.3074 25.5933 35.7903 25.5934H35.3024L36.981 15.1564C37.4486 12.3998 38.4566 6.4449 38.6932 4.9637C38.8122 4.2154 38.9277 3.6897 39.375 3.395V3.9368H41.3441C41.5178 3.93625 41.6842 3.86706 41.807 3.74433C41.9299 3.62159 41.9993 3.45526 42 3.2816V0.6566C41.9996 0.482693 41.9304 0.316005 41.8075 0.192969C41.6846 0.0699322 41.518 0.00055463 41.3441 0V0ZM7.21888 40.0316C6.69681 40.031 6.19628 39.8234 5.82712 39.4542C5.45796 39.0851 5.25033 38.5846 5.24977 38.0625H9.18729C9.18674 38.5844 8.9792 39.0849 8.61019 39.454C8.24118 39.8231 7.74083 40.0309 7.21888 40.0316V40.0316ZM30.844 40.0316C30.3218 40.0312 29.8211 39.8237 29.4518 39.4545C29.0825 39.0853 28.8748 38.5847 28.8742 38.0625H32.8131C32.8122 38.5845 32.6045 39.0848 32.2354 39.4538C31.8663 39.8229 31.366 40.0307 30.844 40.0316V40.0316ZM29.2291 10.4958C29.2522 10.3179 29.3384 10.1542 29.472 10.0345C29.6056 9.91473 29.7778 9.84694 29.9571 9.8434H34.1131C34.4743 9.8434 34.7256 10.1346 34.6689 10.4923L34.2573 13.132C34.2026 13.489 33.8603 13.7809 33.4984 13.7809H29.5343C29.4508 13.7831 29.3679 13.7672 29.2911 13.7343C29.2144 13.7014 29.1457 13.6523 29.0897 13.5903C29.0338 13.5283 28.992 13.4549 28.9671 13.3752C28.9422 13.2955 28.9349 13.2113 28.9456 13.1285L29.2291 10.4958V10.4958ZM28.5228 17.0583C28.5463 16.8806 28.6326 16.7171 28.7662 16.5975C28.8997 16.4778 29.0716 16.4099 29.2508 16.4059H33.0889C33.4508 16.4059 33.7014 16.6971 33.6468 17.0548L33.3367 19.0386C33.2814 19.3956 32.9398 19.6875 32.5779 19.6875H28.898C28.8146 19.6895 28.7318 19.6734 28.6551 19.6404C28.5785 19.6074 28.5099 19.5583 28.454 19.4964C28.3981 19.4344 28.3562 19.3611 28.3313 19.2815C28.3063 19.2019 28.2988 19.1179 28.3093 19.0351L28.5228 17.0583V17.0583ZM3.40596 13.1439L2.74095 10.4804C2.65415 10.129 2.87955 9.8434 3.24146 9.8434H8.18279C8.54539 9.8434 8.87229 10.1367 8.91079 10.4958L9.19359 13.1292C9.20409 13.2119 9.19661 13.2959 9.17168 13.3755C9.14675 13.455 9.10495 13.5283 9.04914 13.5902C8.99332 13.6521 8.9248 13.7013 8.84826 13.7343C8.77171 13.7673 8.68894 13.7835 8.60559 13.7816H4.22286C3.86166 13.7816 3.49346 13.4939 3.40596 13.1439V13.1439ZM5.69567 19.6875C5.33447 19.6875 4.96627 19.4005 4.87947 19.0505L4.37826 17.0436C4.29076 16.6922 4.51477 16.4066 4.87667 16.4066H8.88699C9.24889 16.4066 9.5765 16.6999 9.615 17.059L9.8278 19.0358C9.83841 19.1185 9.83102 19.2026 9.80614 19.2822C9.78125 19.3618 9.73946 19.4351 9.68362 19.497C9.62778 19.559 9.55921 19.6081 9.48261 19.6411C9.40601 19.6741 9.32318 19.6902 9.23979 19.6882H5.69567V19.6875ZM9.874 25.5941H7.16848C6.80518 25.5941 6.43908 25.3071 6.35158 24.9571L5.85037 22.9502C5.76357 22.5988 5.98757 22.3132 6.35018 22.3132H9.5212C9.8831 22.3132 10.2107 22.6065 10.2506 22.9656L10.462 24.9424C10.4726 25.0251 10.4652 25.1091 10.4404 25.1887C10.4155 25.2683 10.3737 25.3415 10.3178 25.4034C10.262 25.4653 10.1934 25.5144 10.1168 25.5473C10.0402 25.5802 9.95735 25.5962 9.874 25.5941V25.5941ZM17.9184 24.9375C17.9177 25.1117 17.8481 25.2784 17.7248 25.4015C17.6015 25.5245 17.4346 25.5937 17.2604 25.5941H13.8367C13.6575 25.5904 13.4855 25.5225 13.3521 25.4028C13.2186 25.2831 13.1325 25.1195 13.1094 24.9417L12.8966 22.9649C12.8858 22.8822 12.893 22.7981 12.9177 22.7184C12.9425 22.6388 12.9842 22.5654 13.04 22.5034C13.0958 22.4414 13.1644 22.3923 13.241 22.3593C13.3177 22.3263 13.4005 22.3104 13.4839 22.3125H17.2604C17.4347 22.3125 17.6019 22.3816 17.7252 22.5047C17.8486 22.6278 17.9181 22.7948 17.9184 22.9691V24.9375V24.9375ZM17.9184 19.0316C17.9177 19.2058 17.8481 19.3725 17.7248 19.4956C17.6015 19.6186 17.4346 19.6878 17.2604 19.6882H13.2018C12.8406 19.6882 12.5144 19.3949 12.4738 19.0358L12.2624 17.059C12.2517 16.9763 12.259 16.8923 12.2838 16.8127C12.3086 16.7331 12.3503 16.6598 12.4061 16.5978C12.4619 16.5358 12.5304 16.4866 12.607 16.4536C12.6836 16.4206 12.7664 16.4046 12.8497 16.4066H17.2604C17.4347 16.4066 17.6019 16.4757 17.7252 16.5988C17.8486 16.7219 17.9181 16.8889 17.9184 17.0632V19.0316V19.0316ZM17.9184 13.125C17.9177 13.2992 17.8481 13.4659 17.7248 13.589C17.6015 13.712 17.4346 13.7812 17.2604 13.7816H12.569C12.3896 13.7781 12.2175 13.7103 12.0839 13.5905C11.9503 13.4708 11.8641 13.3071 11.841 13.1292L11.5582 10.4958C11.5476 10.4131 11.555 10.329 11.5799 10.2494C11.6048 10.1698 11.6465 10.0965 11.7024 10.0346C11.7582 9.97261 11.8268 9.92345 11.9034 9.89046C11.98 9.85746 12.0628 9.84141 12.1462 9.8434H17.2611C17.4354 9.8434 17.6026 9.91253 17.7259 10.0356C17.8493 10.1587 17.9188 10.3257 17.9192 10.5V13.125H17.9184ZM25.0298 24.9417C25.0066 25.1195 24.9203 25.2832 24.7867 25.4029C24.6532 25.5226 24.4811 25.5904 24.3018 25.5941H21.2078C21.0337 25.5937 20.8668 25.5245 20.7436 25.4014C20.6205 25.2784 20.551 25.1116 20.5505 24.9375V22.9684C20.5508 22.7943 20.6202 22.6274 20.7434 22.5043C20.8666 22.3812 21.0336 22.312 21.2078 22.3118H24.6546C25.0158 22.3118 25.2818 22.6051 25.2426 22.9642L25.0298 24.9417ZM25.664 19.0351C25.6408 19.2129 25.5545 19.3766 25.4209 19.4963C25.2874 19.616 25.1153 19.6838 24.936 19.6875H21.2078C21.0337 19.6871 20.8668 19.6179 20.7436 19.4948C20.6205 19.3718 20.551 19.205 20.5505 19.0309V17.0618C20.5508 16.8877 20.6202 16.7208 20.7434 16.5977C20.8666 16.4746 21.0336 16.4054 21.2078 16.4052H25.2888C25.6507 16.4052 25.916 16.6985 25.8761 17.0576L25.664 19.0351ZM26.2982 13.1292C26.275 13.307 26.1887 13.4707 26.0552 13.5904C25.9216 13.7101 25.7495 13.7779 25.5702 13.7816H21.2078C21.0337 13.7812 20.8668 13.712 20.7436 13.5889C20.6205 13.4659 20.551 13.2991 20.5505 13.125V10.5C20.5508 10.3259 20.6202 10.159 20.7434 10.0359C20.8666 9.9128 21.0336 9.84358 21.2078 9.8434H25.9937C26.3556 9.8434 26.6209 10.1367 26.5824 10.4958L26.2982 13.1292V13.1292ZM31.3606 25.5941V25.5892L31.355 25.5941H28.2638C28.2435 25.5941 28.226 25.5843 28.2057 25.5815C28.2022 25.5577 28.2022 25.5339 28.198 25.5087L28.1672 25.5731C28.1758 25.5754 28.1844 25.5772 28.1931 25.5787C27.8704 25.5416 27.6394 25.2749 27.6765 24.9417L27.8879 22.9649C27.9114 22.7872 27.9977 22.6237 28.1313 22.5041C28.2648 22.3844 28.4367 22.3165 28.6159 22.3125H32.1691C32.531 22.3125 32.7802 22.6037 32.7256 22.9614L32.4155 24.9452C32.3616 25.3022 32.02 25.5941 31.6581 25.5941H31.3606" fill="#FF9D33"/>
</svg>
